<?xml version="1.0" encoding="utf-8"?>
<!-- Generator: Adobe Illustrator 15.0.2, SVG Export Plug-In . SVG Version: 6.00 Build 0)  -->
<!DOCTYPE svg PUBLIC "-//W3C//DTD SVG 1.1//EN" "http://www.w3.org/Graphics/SVG/1.1/DTD/svg11.dtd">
<svg version="1.1" id="Calque_1" xmlns="http://www.w3.org/2000/svg" xmlns:xlink="http://www.w3.org/1999/xlink" x="0px" y="0px"
	 width="512px" height="512px" viewBox="0 0 512 512" enable-background="new 0 0 512 512" xml:space="preserve">
<ellipse fill="#F1BE41" cx="256" cy="115.275" rx="124.045" ry="42.342"/>
<path fill="#F1BE41" d="M305.085,277.55c-8.181,0-12.9,8.024-12.9,18.015c0,10.068,4.799,17.777,12.9,17.777
	c8.103,0,12.743-7.631,12.743-18.014C317.828,285.574,313.266,277.55,305.085,277.55z"/>
<path fill="#F1BE41" d="M381.849,138.977c-11.035,20.299-63.184,35.671-125.849,35.671c-62.303,0-114.212-15.195-125.653-35.321
	c-1.54-2.709-2.347-0.343-2.347-0.343v256.392c0,24.13,57.309,43.691,128,43.691c70.694,0,128.001-19.562,128.001-43.691V138.354
	C384.001,138.354,383.262,136.377,381.849,138.977z M187.566,321.994h-11.957v-22.183h-19.745v22.183h-11.956v-53.019h11.956v20.374
	h19.745v-20.374h11.957V321.994z M230.436,278.809h-20.374v12.115h19.037v9.753h-19.037v21.317h-11.956v-53.019h32.33V278.809z
	 M252.461,322.781c-6.057,0-12.035-1.652-15.024-3.304l2.438-9.833c3.147,1.652,8.181,3.304,13.294,3.304
	c5.507,0,8.417-2.281,8.417-5.742c0-3.304-2.518-5.191-8.889-7.395c-8.81-3.146-14.631-8.023-14.631-15.732
	c0-9.046,7.63-15.89,20.059-15.89c6.057,0,10.383,1.18,13.529,2.675l-2.674,9.597c-2.046-1.022-5.9-2.518-11.013-2.518
	c-5.192,0-7.709,2.439-7.709,5.113c0,3.383,2.911,4.877,9.833,7.473c9.36,3.461,13.688,8.338,13.688,15.812
	C273.778,315.229,267.014,322.781,252.461,322.781z M327.347,331.119c-7.552-2.202-13.845-4.563-21.003-7.473
	c-1.181-0.473-2.438-0.708-3.619-0.786c-12.035-0.787-23.205-9.597-23.205-26.981c0-15.969,10.069-27.847,25.959-27.847
	c16.126,0,25.015,12.271,25.015,26.824c0,12.035-5.585,20.53-12.507,23.677v0.314c4.011,1.18,8.574,2.203,12.742,2.989
	L327.347,331.119z M371.475,321.994h-33.037v-53.019h11.956v42.949h21.081V321.994z"/>
<polygon fill="#506D80" points="187.566,321.994 175.609,321.994 175.609,299.812 155.865,299.812 155.865,321.994 143.909,321.994 
	143.909,268.976 155.865,268.976 155.865,289.35 175.609,289.35 175.609,268.976 187.566,268.976 "/>
<polygon fill="#506D80" points="230.436,278.809 210.062,278.809 210.062,290.924 229.099,290.924 229.099,300.677 210.062,300.677 
	210.062,321.994 198.106,321.994 198.106,268.976 230.436,268.976 "/>
<path fill="#DD4B39" d="M252.461,322.781c-6.057,0-12.035-1.652-15.024-3.304l2.438-9.833c3.147,1.652,8.181,3.304,13.294,3.304
	c5.507,0,8.417-2.281,8.417-5.742c0-3.304-2.518-5.191-8.889-7.395c-8.81-3.146-14.631-8.023-14.631-15.732
	c0-9.046,7.63-15.89,20.059-15.89c6.057,0,10.383,1.18,13.529,2.675l-2.674,9.597c-2.046-1.022-5.9-2.518-11.013-2.518
	c-5.192,0-7.709,2.439-7.709,5.113c0,3.383,2.911,4.877,9.833,7.473c9.36,3.461,13.688,8.338,13.688,15.812
	C273.778,315.229,267.014,322.781,252.461,322.781z"/>
<polygon fill="#DD4B39" points="371.475,321.994 338.438,321.994 338.438,268.976 350.394,268.976 350.394,311.925 371.475,311.925 
	"/>
<path fill="#DD4B39" d="M317.986,318.848v-0.314c6.922-3.146,12.507-11.642,12.507-23.677c0-14.553-8.889-26.824-25.015-26.824
	c-15.89,0-25.959,11.878-25.959,27.847c0,17.385,11.17,26.194,23.205,26.981c1.181,0.078,2.438,0.313,3.619,0.786
	c7.158,2.91,13.451,5.271,21.003,7.473l3.382-9.282C326.561,321.051,321.997,320.027,317.986,318.848z M305.085,313.342
	c-8.102,0-12.9-7.709-12.9-17.777c0-9.99,4.72-18.015,12.9-18.015s12.743,8.024,12.743,17.778
	C317.828,305.711,313.188,313.342,305.085,313.342z"/>
</svg>
